
<svg className="text-gray-" width="700pt" height="700pt" color="rgb(209 213 219)" version="1.1" viewBox="0 0 700 700" xmlns="http://www.w3.org/2000/svg" xmlns:xlink="http://www.w3.org/1999/xlink">

  <path d="m231.76 444.44c-11.594-0.011718-22.711-4.625-30.91-12.824-8.1953-8.2031-12.801-19.324-12.801-30.922 0-11.594 4.6016-22.715 12.793-30.922l241.15-241.15c11.117-10.727 27.07-14.797 41.965-10.703 14.898 4.0898 26.535 15.738 30.613 30.637 4.0781 14.902-0.007812 30.852-10.746 41.957l-241.32 241.15c-8.1562 8.1523-19.207 12.746-30.742 12.773z"/>
  <path d="m472.91 444.44c-11.605 0.003906-22.73-4.6133-30.918-12.832l-241.15-241.09c-10.051-11.199-13.637-26.781-9.5-41.25 4.1367-14.469 15.422-25.793 29.875-29.988 14.453-4.1914 30.047-0.66016 41.285 9.3477l241.32 241.15c8.1953 8.207 12.797 19.328 12.797 30.922-0.003906 11.598-4.6055 22.719-12.805 30.922-8.1953 8.1992-19.312 12.812-30.906 12.824z"/>

</svg>
